<svg width="48" height="52" viewBox="0 0 48 52" fill="none" xmlns="http://www.w3.org/2000/svg">
<mask id="mask0_0:942" style="mask-type:alpha" maskUnits="userSpaceOnUse" x="0" y="0" width="48" height="52">
<path fill-rule="evenodd" clip-rule="evenodd" d="M0 0.0689392H47.4805V51.7745H0V0.0689392Z" fill="white"/>
</mask>
<g mask="url(#mask0_0:942)">
<path fill-rule="evenodd" clip-rule="evenodd" d="M46.519 19.8031L42.9726 25.8893L46.512 31.9637C47.8033 34.1797 47.8033 36.8256 46.5121 39.0415C45.2209 41.2575 42.9081 42.5804 40.3256 42.5804H33.2466L29.973 48.1983C28.6683 50.4376 26.3312 51.7745 23.7215 51.7745C21.1117 51.7745 18.7746 50.4376 17.4697 48.1983L14.1962 42.5804H7.10318C4.53939 42.5804 2.24341 41.2671 0.96148 39.0672C-0.320447 36.8671 -0.320447 34.2403 0.96148 32.0404L4.50795 25.9541L0.968437 19.8799C-0.322812 17.6639 -0.322812 15.018 0.968437 12.802C2.25969 10.586 4.57244 9.26302 7.15494 9.26302H14.234L17.5075 3.64521C18.8122 1.40603 21.1496 0.0689392 23.7592 0.0689392C26.369 0.0689392 28.7059 1.40589 30.0108 3.64521L33.2843 9.26302H40.3773C42.9412 9.26302 45.2372 10.5765 46.5191 12.7764C47.801 14.9763 47.801 17.6031 46.519 19.8031ZM23.7592 1.61745C21.7144 1.61738 19.8833 2.66487 18.8609 4.41943L16.0385 9.26302H31.4797L28.6573 4.41943C27.635 2.66487 25.8039 1.61745 23.7592 1.61745ZM33.0981 39.7385L33.0223 39.8685L33.0112 39.8875L32.8292 40.1999L31.8619 41.8601L31.6953 42.1459L29.6851 45.5959L29.0789 46.6361L28.652 47.3687L28.6359 47.3724L28.6263 47.3888C27.604 49.1434 25.739 49.6488 23.6943 49.6487C21.6525 49.6487 19.8576 49.1463 18.8345 47.3962L18.8022 47.3881L17.7646 45.6074L17.5046 45.1614L6.31252 25.9541L8.3426 22.4704L8.34287 22.4715L11.9236 16.3295L11.9211 16.3291L12.3276 15.6316L12.3302 15.6321L15.1406 10.8115L32.3826 10.8055L41.168 25.8895L33.0981 39.7385ZM45.1587 38.2673C44.1499 39.9984 42.3431 41.032 40.3256 41.032H34.1489L42.0702 27.4378L45.1586 32.7379C46.1674 34.4691 46.1674 36.5361 45.1587 38.2673ZM2.31493 38.2929C3.31438 40.0081 5.10435 41.032 7.10318 41.032H13.2939L5.41027 27.5026L2.31493 32.8146C1.31555 34.5298 1.31555 36.5777 2.31493 38.2929ZM2.32196 19.1057C1.31318 17.3745 1.31318 15.3073 2.32196 13.5762C3.33066 11.845 5.1374 10.8115 7.15494 10.8115H13.3316L5.41027 24.4057L2.32196 19.1057ZM40.3773 10.8115C42.3762 10.8115 44.1663 11.8354 45.1657 13.5506C46.1651 15.2657 46.165 17.3137 45.1657 19.0289L42.0702 24.341L34.1867 10.8115H40.3773Z" fill="#03C4E8"/>
</g>
<path d="M32.1652 28.3603L29.5028 27.775L31.5736 30.7017V39.7745L38.1334 33.9211L38.6734 23.9702L35.4193 25.1409L32.1652 28.3603Z" fill="#03C4E8"/>
<path d="M15.599 28.3603L18.2614 27.775L16.1906 30.7017V39.7745L9.63081 33.9211L9.09081 23.9702L12.3449 25.1409L15.599 28.3603Z" fill="#03C4E8"/>
<path fill-rule="evenodd" clip-rule="evenodd" d="M17.0781 31.287L19.4447 27.775L20.9239 28.653H26.8404L28.3195 27.775L30.6861 31.287V44.4573L27.9204 49.68H19.3039L17.0781 44.4573V31.287Z" fill="#03C4E8"/>
<path d="M31.5736 45.3353L35.4193 41.5305V37.7258L31.5736 40.9452V45.3353Z" fill="#03C4E8"/>
<path d="M16.1906 45.3353L12.3449 41.5305V37.7258L16.1906 40.9452V45.3353Z" fill="#03C4E8"/>
<path fill-rule="evenodd" clip-rule="evenodd" d="M20.0363 10.8L17.6697 16.3608L21.5155 27.4823H23.2904V10.8H20.0363ZM24.4737 10.8V27.4823H26.5445L30.0944 16.3608L27.7278 10.8H24.4737Z" fill="#03C4E8"/>
<path d="M21.5155 27.4823L8.79498 22.7996L7.02002 15.4828L17.9656 16.3608L21.8113 27.4823H21.5155Z" fill="#03C4E8"/>
<path d="M26.5446 27.4823L39.2651 22.7996L41.04 15.4828L29.7986 16.3608L26.2487 27.4823H26.5446Z" fill="#03C4E8"/>
<path d="M30.6861 15.4828L36.3584 14.8974L32.7569 10.8H28.6153L30.6861 15.4828Z" fill="#03C4E8"/>
<path d="M17.0781 15.4828L11.4057 14.8974L15.0073 10.8H19.1489L17.0781 15.4828Z" fill="#03C4E8"/>
</svg>
